# xmcd
#
# Track frame offsets:
#	150
#	19320
#	44630
#	57007
#	80337
#	109150
#	119580
#	129330
#	142035
#
# Disc length: 2234 seconds
#
# Revision: 1
# Processed by: cddbd v1.5.1PL0 Copyright (c) Steve Scherf et al.
# Submitted via: CDex 1.50Beta5
#
DISCID=7e08b809
DTITLE=朝比奈隆/大阪フィルハーモニー交響楽団 - Messa da Requiem - Giuseppe VERDI Disc 2
DYEAR=1900
DGENRE=Classical
TTITLE0=Domine Jesu Christe, Rex gloriae
TTITLE1=Hostias, et preces tibi, Domine
TTITLE2=Sanctus, Sanctus, Sanctus
TTITLE3=Agnus Dei, qui tolis peccata mundi
TTITLE4=Lux aeterna luceat eis, Domine
TTITLE5=Libera me
TTITLE6=Dies illa, dies irae
TTITLE7=Requiem aeternam dona eis, Domine
TTITLE8=Libera me
EXTD=
EXTT0=
EXTT1=
EXTT2=
EXTT3=
EXTT4=
EXTT5=
EXTT6=
EXTT7=
EXTT8=
PLAYORDER=
